<svg xmlns="http://www.w3.org/2000/svg" xmlns:xlink="http://www.w3.org/1999/xlink" fill="none" version="1.1" width="64" height="64" viewBox="0 0 64 64"><defs><clipPath id="master_svg0_2_10"><rect x="0" y="0" width="64" height="64" rx="0"/></clipPath></defs><g clip-path="url(#master_svg0_2_10)"><g><rect x="4" y="4" width="56" height="56" rx="12" fill="#4F46E5" fill-opacity="1" style="mix-blend-mode:passthrough"/><rect x="4" y="4" width="56" height="56" rx="12" fill-opacity="0" stroke-opacity="1" stroke="#3730A3" fill="none" stroke-width="2" style="mix-blend-mode:passthrough"/></g><g><g><rect x="15" y="15" width="33.880001068115234" height="33.880001068115234" rx="4.840000152587891" fill-opacity="0" stroke-opacity="1" stroke="#FFFFFF" fill="none" stroke-width="3" style="mix-blend-mode:passthrough"/></g><g transform="matrix(0,1,-1,0,40.1925048828125,-10.1925048828125)"><line x1="25.1925048828125" y1="14" x2="59.072505950927734" y2="14" fill-opacity="0" stroke-opacity="1" stroke="#FFFFFF" fill="none" stroke-width="2" style="mix-blend-mode:passthrough"/></g><g transform="matrix(0,1,-1,0,52.08250045776367,-22.082500457763672)"><line x1="37.08250045776367" y1="14" x2="70.9625015258789" y2="14" fill-opacity="0" stroke-opacity="1" stroke="#FFFFFF" fill="none" stroke-width="2" style="mix-blend-mode:passthrough"/></g><g><line x1="15" y1="27.00749969482422" x2="48.880001068115234" y2="27.00749969482422" fill-opacity="0" stroke-opacity="1" stroke="#FFFFFF" fill="none" stroke-width="2" style="mix-blend-mode:passthrough"/></g><g><line x1="15" y1="37.6875" x2="48.880001068115234" y2="37.6875" fill-opacity="0" stroke-opacity="1" stroke="#FFFFFF" fill="none" stroke-width="2" style="mix-blend-mode:passthrough"/></g></g><g><g><rect x="39" y="39" width="17" height="17" rx="8.5" fill="#10B981" fill-opacity="1" style="mix-blend-mode:passthrough"/></g><g transform="matrix(0,1,-1,0,90,-8)"><path d="M60.718978,41L50.2810218,41C49.57353294,41,49,41.67157292,49,42.4999999C49,43.3284271,49.57353294,43.9999998,50.2810218,43.9999998L60.718978,43.9999998C61.426467,43.9999998,62,43.3284271,62,42.4999999C62,41.67157292,61.426467,41,60.718978,41Z" fill-rule="evenodd" fill="#FFFFFF" fill-opacity="1" style="mix-blend-mode:passthrough"/></g><g><path d="M52.718978,46L42.2810218,46C41.57353294,46,41,46.67157292,41,47.4999999C41,48.3284271,41.57353294,48.9999998,42.2810218,48.9999998L52.718978,48.9999998C53.426467,48.9999998,54,48.3284271,54,47.4999999C54,46.67157292,53.426467,46,52.718978,46Z" fill-rule="evenodd" fill="#FFFFFF" fill-opacity="1" style="mix-blend-mode:passthrough"/></g></g></g></svg>